# xmcd
#
# Track frame offsets: 
#        150
#        8657
#        19247
#        29435
#        40052
#        55967
#        66577
#        78202
#        87627
#        97697
#        110454
#        119770
#        131212
#        142907
#        153890
#        163459
#        174337
#        184285
#        196900
#        208447
#
# Disc length: 2899 seconds
#
# Revision: 0
# Processed by: cddbd v1.5.2PL0 Copyright (c) Steve Scherf et al.
# Submitted via: ExactAudioCopy v0.99pb3
#
DISCID=1d0b5114
DTITLE=Chet Atkins - Music from Nashville, My Home Town - Chet Atkins
DYEAR=2005
DGENRE=Country
TTITLE0=Prancin' Filly
TTITLE1=Sidewalks of Nashville
TTITLE2=Solo Soul
TTITLE3=Summer Sunday
TTITLE4=Around the World
TTITLE5=Ain't We Got Fun
TTITLE6=Yours
TTITLE7=Love Offering
TTITLE8=George's Theme
TTITLE9=Lonesome Road
TTITLE10=Foggy Mountain Top
TTITLE11=Truck Drivers Blues
TTITLE12=Bandera
TTITLE13=Make the World Go Away
TTITLE14=Oh Baby Mine (I Get So Lonely)
TTITLE15=Oklahoma Hills
TTITLE16=Just Out of Reach
TTITLE17=Wabash Cannonball
TTITLE18=Release Me (and Let Me Love Again)
TTITLE19=Goin' Down the Road (Feelin' Bad)
EXTD=
EXTT0=
EXTT1=
EXTT2=
EXTT3=
EXTT4=
EXTT5=
EXTT6=
EXTT7=
EXTT8=
EXTT9=
EXTT10=
EXTT11=
EXTT12=
EXTT13=
EXTT14=
EXTT15=
EXTT16=
EXTT17=
EXTT18=
EXTT19=
PLAYORDER=
